<!-- Generator: Adobe Illustrator 19.2.1, SVG Export Plug-In  -->
<svg version="1.1"
	 xmlns="http://www.w3.org/2000/svg" xmlns:xlink="http://www.w3.org/1999/xlink" xmlns:a="http://ns.adobe.com/AdobeSVGViewerExtensions/3.0/"
	 x="0px" y="0px" width="278px" height="531.1px" viewBox="0 0 278 531.1" style="enable-background:new 0 0 278 531.1;"
	 xml:space="preserve">
<style type="text/css">
	.st0{fill:#231F20;}
	.st1{fill:#736759;}
	.st2{fill:#5A4B43;}
	.st3{fill:#A08665;}
	.st4{fill:#786550;}
	.st5{fill:#F6EFCC;}
	.st6{fill:#504E50;}
	.st7{fill:#676767;}
	.st8{fill:#8E8A77;}
	.st9{fill:#4D4B42;}
	.st10{fill:#C1A280;}
	.st11{fill:#010101;}
	.st12{fill:#FFFFFF;}
	.st13{fill:#6E6F72;}
</style>
<defs>
</defs>
<g>
	<path class="st0" d="M86,4.2c0,0,2.6-1.5,5.2-0.6c2.7,0.9,5.9,5.3,5.4,10.1C96.1,18.4,85.2,13.8,86,4.2z"/>
	<path class="st0" d="M170.4,4.2c0,0-2.7-0.8-5,0.6c-2.3,1.5-4.3,6.6-2.7,11.1C164.4,20.4,173.5,13.4,170.4,4.2z"/>
	<path class="st1" d="M46.7,11.6c1.8,0,3.7,0,5.7,0c-3.9,5.5-5.7,11.1-5.7,11.1c-6.9-0.9-34.9,2-46.4,3.3c0-2.2-0.1-4.9-0.3-8
		C0,18,22.6,11.6,46.7,11.6z"/>
	<path class="st1" d="M160.5,9.5c-1.1,6.2-1,11.9-1,11.9c-12.4,4.7-58.4,0.9-58.4,0.9s-0.9-3-3-11.2c11.6-0.1,22.8,0.1,32.1,0.6
		C138.1,12,148.9,11,160.5,9.5z"/>
	<path class="st1" d="M278,2.3v11.4c-38,0-66.8,0.9-66.8,0.9c-0.5-3.4-4.7-7.3-10.3-10.8c10.2-1.3,19.6-2.2,26.9-2.1
		C252.5,2.2,278,2.3,278,2.3z"/>
	<path class="st2" d="M278,13.7v10.7c0,0-64.7-1.5-89.1,6.5c-24.3,8-65.6,3.1-78.1,3.7c-12.4,0.6-67.4-2.4-91.7,0.9
		c-20.4,2.8-18.9,2-18.9-9.6c11.5-1.3,39.5-4.1,46.4-3.3c0,0,1.8-5.6,5.7-11.1c13.6-0.1,30-0.5,45.7-0.5c2.1,8.2,3,11.2,3,11.2
		s46.1,3.8,58.4-0.9c0,0-0.1-5.7,1-11.9c13.1-1.7,27.4-4.1,40.4-5.7c5.7,3.5,9.9,7.5,10.3,10.8C211.2,14.6,240,13.7,278,13.7z"/>
	<path class="st0" d="M87.6,506.3c0,0,2.1,15,0.8,19.8c-1.4,4.8-1.6,5.8-3.9-6.8C82.1,506.7,86.7,497.7,87.6,506.3z"/>
	<path class="st0" d="M81.6,508.1c0,0,2.1,15,0.8,19.7c-1.4,4.8-1.6,5.7-3.9-6.8C76.1,508.5,80.7,499.5,81.6,508.1z"/>
	<path class="st0" d="M74.5,507.9c0,0,2.1,15,0.8,19.7c-1.4,4.8-1.6,5.7-3.9-6.8C68.9,508.3,73.5,499.3,74.5,507.9z"/>
	<path class="st3" d="M215.6,312L215.6,312c-4.3,51.7-71.9,88.2-95,98.7c-21,9.6-23.4,0.2-23.7-1.6c0-0.2,0-0.3,0-0.3
		c-1.2-12.8-1.6-26.4-1.7-34.5c4.5-2.2,8.8-4.4,12.7-6.6c29-16.2,43.5-28.4,44.4-38.7c0.6-7.7-25.5-34.4-43.3-21.9
		c2.8-16.2,3.2-27.4-3.4-17.6C92,309.7,85.3,316,85.3,316s-3.2,63.1-0.8,84.2c2.4,21,3.8,103.5-7.2,104.6c-10.9,1.1-13,4.6-20.5-8.2
		c0,0,0,0,0,0c-4.7-12.2-8.1-29.5-10.6-47.6c-0.5-4-1-8-1.5-12c-1.2-10.9-2.1-21.8-2.8-31.8c-0.7-10-1.1-19-1.5-26.3
		c0-1.1-0.1-2.1-0.1-3.2c-1.2-38.9,6.3-76,14.6-105.2c3.2-11.1,4.6-48.8,4.7-84c0,0,0,0,0,0s4.3-3.8,5.6-4.5
		c1.3-0.6,1.1,3.2,3.8,6.6c2.8,3.4,2.6-3.3,5.1-3.3c2.6-0.1,2.3,3.1,7,4.3c4.7,1.2,3.8-3.1,9.6-5c5.8-1.9,10.7,2.1,12.8,3.4
		c2.1,1.3,9.4-3.6,10.5-3.8c1.1-0.2,3.3,1.7,4.8,2.6c1.6,0.9,4.1-1.1,5.4-3.8c1.3-2.8,3.6,3.6,5.5,6.9c1.9,3.3,3.6,2.9,6-1.2
		c2.3-4.1,10.2-9.5,12.6-6.7c2.3,2.8,5.5,10.7,9.4,6.3c3.8-4.5-0.6-12.6,5.8-10.9c6.4,1.7,9.2,13.6,12.8,8.5
		c3.6-5.1,0.9-2.8,4.9-8.8c4.1-6,7.3,2.8,9.8,3.2c2.6,0.4,4.1,2.6,4.9-2.3c0.3-1.8,1.7-1.6,3.5-0.8c-0.2,33.2,2.2,75.6,7.9,94.8
		C212.1,287.8,214.7,301,215.6,312z"/>
	<path class="st4" d="M189.8,375.4c0,0-38,35-86.8,52c0,0-1.2,0.5-3.3,1.2c-2,0.7-4.8,1.7-8.1,2.7c-0.4-13.7-1-29.7-1.6-48.3
		c-0.1-1.9,0-4,0-6.2c1.7-0.8,3.5-1.7,5.2-2.5c0.2,8.2,0.6,21.8,1.8,34.8c0,0.1,0,0.1,0,0.2c0,0,0-0.1,0-0.1
		c0.3,1.8,2.8,11.1,23.7,1.6c23.1-10.5,90.7-47,95-98.7C219.1,351.5,201.8,363.4,189.8,375.4z"/>
	<path class="st4" d="M109,307.2c-5.7,4-10.6,12-13.4,26c0,0-2.3,12.4-4,26c-0.7,6-1.3,12.2-1.6,17.6c-0.1,2.2-0.1,4.3,0,6.2
		c0.6,18.6,1.2,34.6,1.6,48.3c0.2,5.9,0.3,11.4,0.5,16.5c1.7,62.8-0.9,66.9-19.7,66.2c-6.3-0.2-11.4-7-15.5-17.6
		c7.5,12.8,9.5,9.4,20.5,8.2c10.9-1.1,9.5-83.6,7.2-104.6c-2.4-21,0.8-84.2,0.8-84.2s6.7-6.3,20.2-26.4
		C112.1,279.8,111.8,291,109,307.2z"/>
	<path class="st3" d="M182.3,294.5C182.3,294.5,182.3,294.5,182.3,294.5c-2,30.2-23.6,41.9-31.4,44.1c-7.8,2.3-12.1,10-12.1,10
		l-4.7-5.3l-7.1,5.3c0,0,1.6-7-23.3-12.1c-23.7-4.9-26.4-34.2-26.6-36.9c0,0,0,0,0,0c0.1-7.2,1.9-14.5,5.4-21.1c0,0,0,0,0,0
		c0,0,0,0,0,0c0.6-0.8,17.9-21.7,44.5-21.7c27,0,42.6,6.4,52.7,21.7c0,0,0,0,0,0c1.2,3.5,2,7.5,2.4,12.1
		C182.2,292,182.3,293.3,182.3,294.5z"/>
	<path class="st5" d="M85.1,290.4c1.9-2.4,4-0.6,11.3,9.4c7.3,10,18.8,11.4,22.4,8.4c3.6-3,1.1-9.7-3-11.1
		c-4.1-1.4-9.8-6.3-14.1-13.9c-4.2-7.4-2.5-11.6-2.4-11.9h0c6.8-4.2,16.2-7.2,29-8.1c13-1,23.2,1.7,30.7,6.4
		c-0.1,0.2-0.1,0.4-0.2,0.5c0,0,3.9,13-9.4,22c-9.7,6.6-13.5,6-12.4,12.8c1.1,6.7,12.4,4.9,18.8,0c6.3-4.8,14.9-12.1,16.7-19.8
		c5.2,11.9,2.9,25.4-5.9,32.1c-21.1,16-34.8,0.8-34.8,0.8c-4.3,9.7-35.1,12.4-43.6-4C85,307.4,83.2,298.7,85.1,290.4z"/>
	<path class="st6" d="M129.9,294.3c0,0,7.5-0.1,10-2.9c2.6-2.8-1.5-8.6-10.2-8.4c-8.7,0.2-10.4,4.6-10.8,7
		C118.5,292.3,122.6,294.5,129.9,294.3z"/>
	<path class="st7" d="M138.7,287.4c0,0-2.4-2.8-8.9-2.8c-6.4,0-9.3,4.1-9.3,4.1s5.3-1.3,9.3-1.3c4,0,10.2,1.3,10.2,1.3L138.7,287.4z
		"/>
	<path class="st8" d="M145.8,286c0,0-0.5-3.6-5.1-4.8c-4.6-1.2-21.1-1.2-24.1,0.8c-3,2-2.2,3.8-3.2,3.9c-1,0.1-0.7-4,3.3-5.5
		c4.1-1.5,19.8-2.7,24.6-0.8c4.8,1.9,6.2,5.3,5.8,7C146.6,288.4,146.1,287,145.8,286z"/>
	<path class="st9" d="M85.1,290.4c1.6-7.1,6-14.1,14.3-19.2c-0.1,0.2-1.8,4.4,2.4,11.9c4.3,7.7,10.1,12.5,14.1,13.9
		c4.1,1.4,6.6,8.1,3,11.1c-3.6,3-15.2,1.6-22.4-8.4C89.2,289.8,87.1,287.9,85.1,290.4z"/>
	<path class="st9" d="M149.5,292.1c13.3-9.1,9.4-22,9.4-22c0.1-0.2,0.1-0.4,0.2-0.5c6.5,4,10.9,9.6,13.5,15.5
		c-1.8,7.7-10.4,15-16.7,19.8c-6.4,4.9-17.8,6.7-18.8,0C136,298.1,139.9,298.7,149.5,292.1z"/>
	<path class="st3" d="M40.3,435c-3.5-2.1-5.9-5.3-6.6-10.1c-0.8-5.1,0.6-9.8,3.6-14.2C38,418.9,39,427.6,40.3,435z"/>
	<path class="st3" d="M38.1,78.9c-0.9-18.5,11-57.5,18.7-66c8.5-9.4,29.9-19.6,38.8,0c8.9,19.6-3.7,46.1-3.9,60.6
		c0,0-2,21.3-24.7,21.9C44.2,95.9,38.1,78.9,38.1,78.9z"/>
	<path class="st3" d="M172.5,62.3c-0.6-12.8-17.3-54,0-60.7c17.3-6.7,39.2,6.9,47.9,42.8c1.3,5.4,1.9,10.8,2,16.2
		c0,0-11,18.8-26.4,20.6c-15.1,1.8-23.6-13.6-23.8-14.1C172.5,65.4,172.6,63.8,172.5,62.3z"/>
	<path class="st4" d="M182.3,294.6c0.7,32.8-25.4,50.2-33.7,53.5c-8.6,3.5-7.4,14.3-7.4,14.3s-7.4-6.7-7.4-10.4c0,0-4.5,7.8-11,10.4
		c0,0,2.4-10.6-17.2-18.8c-19.1-7.9-28.9-25.9-28.6-43.9c0.2,2.7,3,32.1,26.6,36.9c24.8,5.1,23.3,12.1,23.3,12.1l7.1-5.3l4.7,5.3
		c0,0,4.3-7.7,12.1-10C158.8,336.4,180.3,324.7,182.3,294.6z"/>
	<path class="st10" d="M179.7,278.6c-10-15.4-25.6-21.7-52.7-21.7c-26.5,0-43.8,20.9-44.5,21.7c7.4-14,22.6-25,46.1-26.4
		C128.6,252.2,168.9,246.9,179.7,278.6z"/>
	<path class="st4" d="M44.8,436.9c-1.7-0.5-3.2-1.1-4.5-1.9c-1.3-7.4-2.3-16-3-24.3c1.3-1.9,2.9-3.8,4.7-5.5
		C42.7,415.1,43.6,426,44.8,436.9z"/>
	<path class="st4" d="M203.3,132.6c-0.3,0.8-0.5,1.5-0.7,2.2c-1.9,6.6-3,22.9-3.1,42.3c-1.8-0.8-3.2-1-3.5,0.8
		c-0.9,4.9-2.3,2.8-4.9,2.3c-2.6-0.4-5.8-9.2-9.8-3.2c-4.1,6-1.3,3.6-4.9,8.8c-3.6,5.1-6.4-6.8-12.8-8.5c-6.4-1.7-1.9,6.4-5.8,10.9
		c-3.8,4.5-7-3.4-9.4-6.3c-2.3-2.8-10.2,2.6-12.6,6.7c-2.3,4.1-4.1,4.5-6,1.2c-1.9-3.3-4.3-9.7-5.5-6.9c-1.3,2.8-3.8,4.7-5.4,3.8
		c-1.6-0.9-3.8-2.8-4.8-2.6c-1.1,0.2-8.3,5.1-10.5,3.8c-2.1-1.3-7-5.3-12.8-3.4c-5.8,1.9-4.9,6.2-9.6,5c-4.7-1.2-4.5-4.4-7-4.3
		c-2.6,0.1-2.3,6.8-5.1,3.3c-2.8-3.4-2.6-7.3-3.8-6.6c-1.3,0.6-5.6,4.5-5.6,4.5s0,0,0,0c0.1-19.9-0.3-38.9-1.1-51.8
		c-0.4-6.5-0.9-11.5-1.5-14.3C53.3,102.4,42.6,99,38.7,83.7c-0.3-1.4-0.6-3-0.6-4.8c0,0,6.2,17,28.9,16.4
		c22.8-0.6,24.7-21.9,24.7-21.9c-0.2,14.5,16.8,34.2,23,38.8c1.1,0.8,2.5,1.6,4.2,2.2c9.7,3.7,26.9,3.8,34.1-2.5
		c0.9-0.8,1.7-1.7,2.2-2.7c5.1-9.1,15.2-28.8,17-42.1c0.2,0.5,8.7,15.9,23.8,14.1c15.4-1.8,26.4-20.6,26.4-20.6
		C223,89.5,208.4,116.9,203.3,132.6z"/>
	<path class="st10" d="M78.5,6c0,0-17.1,1.3-24.7,21.8C46.1,48.3,41.1,72,58.6,74.6c17.5,2.6,30.2-10.5,34-26.1
		C96.4,32.9,93.5,4.9,78.5,6z"/>
	<path class="st10" d="M176.4,2.9c0,0-10.5,1.4-7.5,21.5c3,20,11.7,35.1,24.6,35.1c12.9,0,24.2-6.5,20.2-23.8
		C209.6,18.3,194.6-1.4,176.4,2.9z"/>
	<path class="st10" d="M44.1,353.3C44.1,353.2,44.1,353.2,44.1,353.3C44.1,353.2,44.1,353.3,44.1,353.3
		C44.1,353.3,44.1,353.3,44.1,353.3z"/>
	<path class="st10" d="M69.5,342.5c0-0.1,0-0.2,0-0.2c-0.9-9.5-1.4-15.5-1.4-15.5c1.7-49.5,20.9-73.7,49.5-76.2
		c47.8-4.3,65.4,11.8,68.4,32.3c1,7.1,0.5,14.6-1.1,21.6c-0.7,5-0.4,13.6,9.3,14.6c13.4,1.4,13.7-22.2,13.7-23
		c-0.2-2.3-0.7-4.5-1.3-6.5c-5.5-16.7-12.8-59.6-15.4-77.1c-2.6-17.4-29.9-3.1-57.2,0.4c-27.3,3.4-43.1-1.7-58.4,0
		c-15.4,1.7-8.6,41.3-14.6,57.6c-7,19.1-12.2,32.4-14.1,56.3c-0.1,1.2-2.5,24.8-2.7,26.4c0,0,0,0,0,0c0,0,0,0,0,0c0,0,0,0,0,0.1
		c-0.1,1.3-0.8,14.7,9.8,14.7C64.7,368,70,351.2,69.5,342.5z"/>
	<ellipse class="st11" cx="113.9" cy="303.3" rx="5.7" ry="6.2"/>
	<ellipse class="st11" cx="144.3" cy="303.3" rx="5.7" ry="6.2"/>
	<ellipse class="st12" cx="116.1" cy="300.1" rx="1.4" ry="1.5"/>
	<ellipse class="st12" cx="146.4" cy="300.1" rx="1.4" ry="1.5"/>
	<path class="st0" d="M40.3,409.2c0,0-3.9,3-1.3,6.8c2.6,3.8,11.8-3,13.8-4.5C54.7,410,43.2,406.8,40.3,409.2z"/>
	<path class="st13" d="M42,409.2c0,0-2.4,0.7-2.6,2.4c-0.2,1.7,3.3,1.1,6.1,0.4c2.9-0.7,5.7-1.8,3.5-2.2
		C46.8,409.4,44.4,408.7,42,409.2z"/>
	<path class="st0" d="M40.7,418.1c0,0-4.6,3-1.6,6.8c3.1,3.8,14.1-3,16.5-4.5C58,418.8,44.2,415.7,40.7,418.1z"/>
	<path class="st13" d="M42.8,418.1c0,0-2.9,0.7-3.1,2.4c-0.3,1.7,3.9,1.1,7.3,0.4c3.4-0.7,6.8-1.8,4.2-2.2
		C48.5,418.3,45.6,417.6,42.8,418.1z"/>
	<path class="st0" d="M42.5,426.5c0,0-3.9,3-1.3,6.8c2.6,3.8,11.8-3,13.8-4.6C56.9,427.2,45.4,424.1,42.5,426.5z"/>
	<path class="st13" d="M44.2,426.5c0,0-2.4,0.7-2.6,2.4c-0.2,1.7,3.3,1.1,6.1,0.4c2.9-0.7,5.7-1.8,3.5-2.2
		C49,426.7,46.6,426,44.2,426.5z"/>
	<g>
		<path class="st2" d="M41.4,14.6c0,0-0.5,0-1.5,0.1c-1,0.1-2.4,0.2-4.1,0.4c-1.7,0.2-3.8,0.4-6,0.7c-2.3,0.3-4.8,0.7-7.4,1.1
			c-5.2,0.8-9.9,1.7-13.3,2.3c-1.7,0.3-3.1,0.6-4,0.8c-0.9,0.2-1.5,0.3-1.5,0.4c0,0,0.5,0,1.5-0.1c1-0.1,2.3-0.3,4.1-0.6
			c3.4-0.5,8.1-1.3,13.4-2.1c2.6-0.4,5.1-0.8,7.4-1.2c2.3-0.3,4.3-0.6,6-0.9c1.7-0.2,3.1-0.5,4.1-0.6C40.9,14.7,41.4,14.6,41.4,14.6
			z"/>
	</g>
	<g>
		<path class="st2" d="M147.4,14.6c0,0-0.6-0.1-1.7,0c-1.1,0-2.7,0.1-4.7,0.1c-4,0-9.5,0.1-15.5,0c-6.1-0.1-11.6-0.2-15.5-0.2
			c-2,0-3.6,0-4.7,0c-1.1,0-1.7,0.1-1.7,0.1c0,0,0.6,0.1,1.7,0.1c1.1,0,2.7,0.1,4.7,0.2c4,0.2,9.5,0.3,15.5,0.4
			c6.1,0.1,11.6,0,15.5-0.2c2-0.1,3.6-0.3,4.7-0.3C146.8,14.7,147.4,14.6,147.4,14.6z"/>
	</g>
	<g>
		<path class="st2" d="M163.1,18.7c0-0.1-1.9,0.2-4.9,0.4c-3.1,0.2-7.3,0.2-12,0.1c-4.7-0.1-8.9-0.3-12-0.4c-1.5,0-2.8-0.1-3.6-0.1
			c-0.9,0-1.3,0-1.3,0c0,0,0.5,0.1,1.3,0.2c0.9,0.1,2.1,0.2,3.6,0.3c3.1,0.2,7.3,0.5,12,0.6c4.7,0.1,8.9,0,12-0.3
			c0.8-0.1,1.5-0.1,2.1-0.2c0.6-0.1,1.1-0.1,1.5-0.2C162.7,18.9,163.2,18.8,163.1,18.7z"/>
	</g>
	<g>
		<path class="st2" d="M252.3,5.6c0,0-0.7-0.1-1.9-0.2c-1.2-0.1-3-0.2-5.2-0.3c-2.2-0.1-4.8-0.2-7.7-0.3c-1.5,0-3-0.1-4.6-0.1
			c-1.6,0-3.2,0-4.9,0c-3.4,0-6.6,0-9.5,0.1c-2.9,0.1-5.5,0.2-7.7,0.3c-2.2,0.1-4,0.2-5.2,0.3c-1.2,0.1-1.9,0.2-1.9,0.2
			c0,0,0.7,0.1,1.9,0c1.2,0,3,0,5.2-0.1c2.2,0,4.8-0.1,7.7-0.1c2.9,0,6.1,0,9.5,0c1.7,0,3.3,0,4.9,0c1.6,0,3.1,0.1,4.6,0.1
			c2.9,0.1,5.5,0.1,7.7,0.2c2.2,0,4,0.1,5.2,0.1C251.6,5.6,252.3,5.6,252.3,5.6z"/>
	</g>
	<g>
		<path class="st2" d="M273.8,9.5c0,0-0.7-0.1-2-0.1c-1.3,0-3.1,0-5.4,0c-2.3,0-5,0-8,0.1c-3,0.1-6.3,0.3-9.8,0.4
			c-6.9,0.3-13.2,0.7-17.7,1.1c-2.3,0.2-4.1,0.3-5.4,0.5c-1.3,0.1-2,0.2-2,0.3c0,0,0.7,0,2,0c1.3-0.1,3.1-0.1,5.4-0.2
			c4.5-0.2,10.8-0.6,17.7-0.9c3.5-0.2,6.8-0.3,9.8-0.5c3-0.1,5.7-0.1,8-0.2c2.3-0.1,4.1-0.1,5.4-0.2C273.1,9.6,273.8,9.5,273.8,9.5z
			"/>
	</g>
</g>
</svg>
