<!-- Generator: Adobe Illustrator 19.2.1, SVG Export Plug-In  -->
<svg version="1.1"
	 xmlns="http://www.w3.org/2000/svg" xmlns:xlink="http://www.w3.org/1999/xlink" xmlns:a="http://ns.adobe.com/AdobeSVGViewerExtensions/3.0/"
	 x="0px" y="0px" width="520.7px" height="418.2px" viewBox="0 0 520.7 418.2" style="enable-background:new 0 0 520.7 418.2;"
	 xml:space="preserve">
<style type="text/css">
	.st0{fill:#A08665;}
	.st1{fill:#786550;}
	.st2{fill:#FBF7E7;}
	.st3{fill:#504E50;}
	.st4{fill:#676767;}
	.st5{fill:#8E8A77;}
	.st6{fill:#4D4B42;}
	.st7{fill:#010101;}
	.st8{fill:#C1A280;}
	.st9{fill:#FFFFFF;}
	.st10{fill:#D2C99F;}
	.st11{fill:#736759;}
	.st12{fill:#5A4B43;}
	.st13{fill:#231F20;}
	.st14{fill:#6E6F72;}
</style>
<defs>
</defs>
<g>
	<path class="st0" d="M322.6,230.6c0,0-5.8-57.7-0.3-101.6c5.5-43.9,24.9-80.5,39.2-80.8c14.3-0.3,30.5,19.4,25.3,100.7
		C381.7,230.2,349.5,310.5,322.6,230.6z"/>
	<path class="st1" d="M328.7,213.3c0,0-8.3-50.3,1.8-89.6c10.1-39.3,22.8-66.2,31.4-64.5c8.6,1.7,21.5,16.5,20.8,54.6
		C381.9,152,362.5,288.4,328.7,213.3z"/>
	<path class="st1" d="M210.9,417.8c-128.6-5.9-153-78.9-153-78.9c-13.3-28.1-14.3-50.3-7.1-67.7c14.2-1.6,26.8,9.2,29.6,32.8
		c0,0,3.5,64.6,118,75.6c114.2,11,204.8-20.9,227.8-88.9c0,1.1,0,2.1,0,3.2C423.3,357.6,339.5,423.7,210.9,417.8z"/>
	<path class="st0" d="M174.5,222.7c0,0,4.4-27.1-1.6-66.5c-6-39.5-23.3-133.2,2.5-143.6c25.9-10.5,48.4,17.1,59.2,50.8
		c10.8,33.7,20.2,89,17.1,122.7C248.6,219.7,173.5,264.9,174.5,222.7z"/>
	<path class="st0" d="M426.2,290.7c-23.1,68-113.7,99.8-227.8,88.9c-114.5-11-118-75.6-118-75.6c-2.8-23.6-15.4-34.4-29.6-32.8
		c14-33.9,59.2-49.8,105.4-56.9c2.6,4.7,4.7,9.8,6.3,15.3c11.7,5.2,22.7,6.5,30,2.1c4.3-2.6,15.6-12,25.6-22.4
		c24.6-0.5,44.6,0.7,53.4,1.6c3.5,0.3,7.6,0.8,12.4,1.4c2.7,26,11.7,46.1,11.7,46.1s12.3-25.7,25.5-28.5
		c13.2-2.8,21.5,20.1,21.5,20.1s15.2-31.5,19.1-56.8c14,9,28.8,25.9,34.8,38.2c2.2,4.4,3.9,10.6,5.1,17.6
		C416.1,259.7,425.9,273.3,426.2,290.7z"/>
	<path class="st0" d="M154.9,298.6c-3.1,5.1-6.8,9.5-10.8,13.4c-29,20.1-69.8,28.2-108.1,10.5c-38.3-17.7-35.8-60.8-35.8-60.8
		c1.1-12.9,5.3-26.1,12.8-38.5c33.9-56.3,92.2-46.3,121.3-30.5c0.1,3.3,1.6,20.7,15.9,30.1c4.1,2.7,8.2,4.9,12.2,6.7
		C168.9,251.6,167.2,278.4,154.9,298.6z"/>
	<path class="st2" d="M126.9,307.6c-12.3,10.4-27.8,14.7-42.6,14.1c0-0.1,0-0.3,0-0.4c0,0-7.8-12.7-6.8-28.5
		c1-15.8,11.6-32.5,5.3-39.2c-6.2-6.7-19.2,5-26,23.3c-5.3,14.1-5.6,27.8-1.1,36.8c-12.4-7.2-20.7-18.8-20.5-33.5
		c0.8-43.6,47.9-48.3,47.9-48.3c0.6-9,2.7-15.8,5.7-20.9c0,0,0,0,0,0c10.6-17.5,33.1-13.3,46.5-3.5c-3.6-0.2-7.4-0.1-11.1,0.6
		c-4.2,0.7-8.3,2.1-11.3,4.1c-10.1,6.9-7.4,20.9,2.8,16.4c7-3.1,21.6-2,30-1.1c1.6,0.2,2.9,0.4,3.9,0.5c1.9,5.2,3.2,11.2,3.7,17.5
		C155.1,265.3,148.9,289,126.9,307.6z"/>
	<path class="st3" d="M123.1,237.3c0,0-13.3-5.1-22.4,7.4c-9.1,12.4-3.6,21,3.4,21.5c6.9,0.5,13.1-0.4,20.1-8.2
		C131.1,250.1,131.3,240.2,123.1,237.3z"/>
	<path class="st4" d="M115.2,237.2c0,0-7.4-0.7-13.1,7.8c-5.7,8.5-2.5,9.8-2.5,9.8s16-0.6,21.5-9.7
		C126.8,236,115.2,237.2,115.2,237.2z"/>
	<path class="st5" d="M138.6,240.7c0,0-2.3,16.7-12.3,26.2c-10,9.5-21.9,16.5-26.7,15.3c-4.7-1.2-5.5,5.1-1.6,5
		c3.9-0.1,22.9-5.6,33.8-20.4c11-14.7,10.7-26.9,9.2-29.9C139.6,234,137.3,236.9,138.6,240.7z"/>
	<path class="st6" d="M84.4,321.7c-10.4-0.4-20.4-3.2-28.6-8c-4.5-9-4.2-22.7,1.1-36.8c6.8-18.2,19.8-30,26-23.3
		c6.2,6.7-4.3,23.4-5.3,39.2c-1,15.8,6.8,28.5,6.8,28.5C84.3,321.5,84.4,321.6,84.4,321.7z"/>
	<path class="st6" d="M149.7,228c-1-0.1-2.4-0.3-3.9-0.5c-8.4-1-23-2.1-30,1.1c-10.1,4.5-12.8-9.5-2.8-16.4c3-2.1,7-3.4,11.3-4.1
		c3.7-0.6,7.5-0.8,11.1-0.6c1.6,1.2,3.1,2.4,4.4,3.7C143.6,215,147.2,220.9,149.7,228z"/>
	<path class="st1" d="M144.1,312c-7,6.9-15,12.1-22.7,16.1c-16.7,8.5-31.9,10.9-31.9,10.9c-53.7,8.1-86.4-24.7-89.3-64.4
		c-0.3-4.2-0.3-8.5,0.1-12.8c0,0-2.6,43.1,35.8,60.8C74.4,340.2,115.2,332.1,144.1,312z"/>
	<path class="st7" d="M81.9,258.1c0,0,2.4-7.1-5.1-1.7c-7.5,5.4-8.6,12.1-8.7,18.8c-0.1,6.7,5.2,4.1,5.5,0.4
		C73.9,271.9,71.6,266.5,81.9,258.1z"/>
	<path class="st7" d="M123.8,215.6c0,0-6.3-0.5-10.2,1.8c-6.2,3.6-5.9,10.3-3.3,7.8c2.6-2.5,6.1-5.8,13.2-6.1
		C130.7,218.8,126.6,215.5,123.8,215.6z"/>
	<path class="st8" d="M83.6,184.6c0,0-24.2-0.3-43.2,17.6c-19,17.9,4.1,9.2,19.2,5c15-4.2,38.2-11.3,40.6-15.1
		C102.5,188.3,97.2,182.7,83.6,184.6z"/>
	<path class="st1" d="M184.8,221.6c0,0,0.9-64-4-93.9c-4.9-29.8-18.1-92.7-5.5-108c12.6-15.4,30.2-0.6,37,13.6
		c6.9,14.2,27.8,71.8,29.3,102.6c1.5,30.7-21.7,74-32.9,87.3C197.5,236.5,184.7,233,184.8,221.6"/>
	<path class="st1" d="M162.5,229.6c-4-1.8-8.1-4.1-12.2-6.7c-14.3-9.4-15.8-26.9-15.9-30.1c2,1.1,3.8,2.2,5.5,3.3
		C150.5,202.9,158.2,215.2,162.5,229.6z"/>
	<path class="st1" d="M218,209.2c-10.1,10.5-21.3,19.9-25.6,22.4c-7.3,4.4-18.3,3.1-30-2.1c-1.6-5.5-3.7-10.6-6.3-15.3
		C177.5,211,199.1,209.6,218,209.2z"/>
	<path class="st1" d="M176.1,233.9c0,0,0.7,13.2-3,25.8c-3.7,12.5,12.4,10.3,23-4.8C206.7,239.7,191.2,208.1,176.1,233.9z"/>
	<path class="st1" d="M361.6,193.1c-3.9,25.3-19.1,56.8-19.1,56.8s-8.3-22.9-21.5-20.1c-13.1,2.8-25.5,28.5-25.5,28.5
		s-9-20.1-11.7-46.1c0.7,0.1,1.5,0.2,2.2,0.3c5.6,0.7,12,1.6,18.7,2.7c3.5,0.6,17,0,29.1-21.8C339.2,183.7,350.2,185.8,361.6,193.1z
		"/>
	<path class="st0" d="M214.3,149.8c0.4,20.5-22.2,68.4-22.2,68.4c-3.6,1.3-7.3,2.3-11.2,3c-22.1,4.1-43.4-9.1-45.7-35.2
		c-2.8-31.6,25.8-42,25.8-42C184.8,135.5,203.5,138.6,214.3,149.8z"/>
	<path class="st2" d="M196.6,180.7c3.4,0.6,6.5,2.4,9.2,4.5c-3.4,9.3-7.1,18.2-9.8,24.4c-3,1.2-6.4,2.2-10.2,2.9
		c-9.7,1.8-17.7,1.3-23.9-0.7c0,0,0,0,0,0c0,0,0,0-0.1,0c-0.4-0.2-2.3-1.5-1.7-6.4c0.7-5.5,4.9-15.6,8.6-18.3
		c3.7-2.6,0.5-6.8-3.6-6.7c-4.1,0.1-17.5,7.7-16.3,22.7c-5.8-7.4-9.1-19.8-4.2-26.3c13.2-17.7,31.3-6.7,31.3-6.7
		c3.4-14.6,25.4-16.7,32.7-9.2c1.3,1.3,2.4,2.9,3.4,4.8c-0.7,2.8-1.5,5.7-2.5,8.7c-6.8-3.2-15.9-3.1-17.9-1.7
		C188.8,174.4,187.3,179.1,196.6,180.7z"/>
	<path class="st6" d="M168.7,187.1c-3.7,2.6-7.9,12.8-8.6,18.3c-0.6,4.9,1.3,6.2,1.7,6.4c-5.8-1.9-10.1-5-13.1-8.8
		c-1.2-15,12.2-22.6,16.3-22.7C169.1,180.3,172.4,184.5,168.7,187.1z"/>
	<path class="st6" d="M213.3,193.4c0,0-7.3-11.1-16.6-12.7c-9.3-1.6-7.8-6.3-5-8.2c2.8-1.9,19.1-1.3,24.1,6.9v0
		C215.9,184,215.2,188.8,213.3,193.4z"/>
	<path class="st3" d="M186.2,188.2c-0.4,0.1-7.1,1.5-8.8,4.1c-1.7,2.7,2.6,5.7,6.8,5.5c4.2-0.2,6.6-3.3,7.3-6.9
		C192.2,187.3,188.4,187.5,186.2,188.2z"/>
	<path class="st4" d="M189.1,188.8c0,0-8.6,0.6-11.3,4c0,0,2.5,1.3,6.9,0C189.1,191.7,189.1,188.8,189.1,188.8z"/>
	<path class="st5" d="M187.8,199.1c0,0-8.4,2.7-10.6,1c-2.2-1.8-2.5,1.5,0,2.2c2.6,0.7,9.3-0.1,14-2.1c4.7-2,7-4.8,7.5-6.8
		c0.5-2.1-1.2-1.9-1.9-0.2C196.1,194.9,191.5,198.1,187.8,199.1z"/>
	<path class="st8" d="M182.6,143.7c0,0-18.7-0.9-27.1,7.7c-8.5,8.6-4.6,9.4-0.9,7.4c3.7-1.9,11.5-7.1,19.7-8
		C182.7,149.9,194.7,145.7,182.6,143.7z"/>
	
		<ellipse transform="matrix(0.9998 -1.993593e-02 1.993593e-02 0.9998 -3.6664 3.2989)" class="st7" cx="163.6" cy="185.5" rx="6.7" ry="6.7"/>
	
		<ellipse transform="matrix(0.9998 -1.989570e-02 1.989570e-02 0.9998 -3.4615 3.938)" class="st7" cx="196.2" cy="175.9" rx="6.7" ry="6.7"/>
	
		<ellipse transform="matrix(0.9998 -1.985430e-02 1.985430e-02 0.9998 -3.5811 3.3307)" class="st9" cx="165.9" cy="182" rx="1.2" ry="1.2"/>
	
		<ellipse transform="matrix(0.9998 -1.921766e-02 1.921766e-02 0.9998 -3.26 3.8233)" class="st9" cx="197.3" cy="171.5" rx="1.2" ry="1.2"/>
	<path class="st10" d="M215.7,179.4c-1.4-2.3-3.6-4-6.2-5.2c0.9-3,1.8-5.9,2.5-8.7C214.1,169.3,215.5,174.2,215.7,179.4z"/>
	<path class="st10" d="M213.3,193.4c-2.8,6.6-8.2,12.5-17.3,16.3c2.7-6.2,6.4-15.1,9.8-24.4C210.3,188.9,213.3,193.4,213.3,193.4z"
		/>
	<path class="st1" d="M192.2,218.2c0.1-0.2,1.6-3.5,3.8-8.5c9.1-3.8,14.5-9.7,17.3-16.3c0,0-3-4.5-7.5-8.1c1.3-3.7,2.6-7.4,3.7-11
		c2.6,1.2,4.8,2.9,6.2,5.2c-0.2-5.2-1.6-10-3.7-13.9c1.5-6,2.4-11.5,2.3-15.8c5.3,5.4,8.7,12.8,9.9,21.6
		C227.3,194.3,212.5,210.8,192.2,218.2z"/>
	<path class="st1" d="M286.8,167c0,0,29.2-0.2,42.6,13.1c13.5,13.2,16.3,28.5,1.8,38.5c-14.5,9.9-41,9.7-51.7-5.2
		C268.7,198.4,260.5,168.7,286.8,167z"/>
	<path class="st0" d="M318.8,175.7c0,0-12.6-6.8-11.6,1.8c1,8.5,2,26.3,11.7,26.9C328.6,204.9,333.1,182.5,318.8,175.7z"/>
	<path class="st11" d="M197.6,37.4c0,0-25.3,1.2-76.6-1.6c-34.2-1.9-64.7-5.6-81.3-7.8c-1.6-3.7,1.7-7,12.7-8.2
		c0,0,74,5.8,115.1,5.1c0.1,0.3,2.7,4.8,9,5.6c4.9,0.6,14.9,1.9,20.3,1.2C197.2,35.1,197.6,37.4,197.6,37.4z"/>
	<path class="st12" d="M196.8,31.6c-5.5,0.7-15.4-0.6-20.3-1.2c-6.3-0.8-8.8-5.3-9-5.6c0,0,0,0,0,0c5.3-0.1,10.1-0.3,14.1-0.6
		c5-0.4,9.8-0.9,14.5-1.5C196.2,26.1,196.5,29.2,196.8,31.6z"/>
	<path class="st11" d="M270.7,25.3c19.3,7.7,55.5,21.3,85.1,30.6c-3.9,5.7-6,10.1-6,10.1l-67.8-23C281.3,40.1,277,33.3,270.7,25.3z"
		/>
	<path class="st12" d="M514.5,126.4c-11.8,1.8-39.8,0.5-47.8-4.2c-8.9-5.2-65.1-31.6-89.6-37.2c-24.5-5.6-104.3-41.7-129-40.9
		c-24.7,0.8-58.6,0.2-82,2.2c-23.4,2-66.6-1.5-92.5-3.7C57.6,41.1,42.3,34,39.7,28c16.6,2.2,47.1,5.8,81.3,7.8
		c51.3,2.9,76.6,1.6,76.6,1.6s-1.2-6.3-1.5-14.7c27.7-3.3,49.6-7.8,66.5-0.7c2.2,0.9,4.9,2,8.2,3.3c6.3,8,10.6,14.8,11.4,17.6
		l67.8,23c0,0,2.1-4.4,6-10.1c10.5,3.3,20.1,6,27.9,7.7c9.9,2.2,20,5.2,29.9,8.8c1.4,8.7,1.7,15.2,1.7,15.2S479.7,116.4,514.5,126.4
		z"/>
	<path class="st11" d="M518,125.6c-0.9,0.3-2.1,0.6-3.5,0.8c-34.8-10-99.2-38.9-99.2-38.9s-0.4-6.6-1.7-15.2
		c23.6,8.4,46.5,19.6,65.5,28.2c27,12.2,34.1,10.4,34.1,10.4S526.3,122.7,518,125.6z"/>
	<path class="st0" d="M174.6,256.5c0,0,36.7-62.7,40.5-80.7c3.8-18-23.6-156.6-1.8-170.8c21.8-14.2,48,3.2,60.5,30
		c12.6,26.9,28.8,116.5,30.4,151.8c1.6,35.3,1.1,62.6-21.8,93.7C259.6,311.6,151.3,313.6,174.6,256.5z"/>
	<path class="st0" d="M341.3,276c0,0-10.7-62.4-6.8-90.7c3.9-28.4,15.4-126.5,41.3-137.3c25.9-10.8,43.3,9,44.6,44.3
		c1.3,35.3-2.6,63.7-0.7,92.6c1.9,28.9,18.4,69.9,3.7,109.9C408.8,334.8,346.4,311.9,341.3,276z"/>
	<path class="st1" d="M250.9,199.9c0,0-37.9-5.3-58.4,42.2c-12.9,29.9-5,49.9,17.9,53.1c22.9,3.2,59.7-1.3,71.3-27.6
		C304.7,215.2,297.1,203.7,250.9,199.9z"/>
	<path class="st8" d="M229.2,19.3c0,0-6.7,24.7-3.4,51.4c3.4,26.7,7.9,58.5,27.7,68.2c19.8,9.6,32.8-11.9,28.7-41
		c-4.1-29.1-12.8-49.5-17.2-66.7C261.2,16.6,234.4,3.8,229.2,19.3z"/>
	<path class="st8" d="M390.1,54.1c0,0-14.3-2.1-25.4,33.6c-11,35.7-2,65.8,18.5,70.1c20.6,4.3,31.3-17.6,32.1-38.9
		C416.2,97.5,418.7,49.1,390.1,54.1z"/>
	<path class="st1" d="M358.8,222.2c0,0-14.4,6.7-12.1,33.1c2.3,26.5,17.5,51.1,41.3,51c23.7-0.1,34.1-26,33.7-46.1
		C421.3,240.3,405.7,203.3,358.8,222.2z"/>
	<path class="st13" d="M178.9,19.2c0,0-3.1-2.6-6.1-0.4c-3,2.2-2.5,5,0.7,8.5c3.2,3.5,4.5,1.6,6-2C181.1,21.7,179.9,19.9,178.9,19.2
		z"/>
	<path class="st14" d="M175.1,18.9c0,0-1.6,0.1-2.6,1.7c-1,1.7,0.8,2.6,2.3,2.8c1.5,0.2,4.1-0.7,4.3-1.9
		C179.3,20.3,177.2,18.5,175.1,18.9z"/>
	<path class="st13" d="M198.3,17.8c0,0-3.1-2.6-6.1-0.4c-3,2.2-2.5,5,0.7,8.5c3.2,3.5,4.5,1.6,6-2C200.5,20.3,199.2,18.4,198.3,17.8
		z"/>
	<path class="st14" d="M194.5,17.5c0,0-1.7,0.1-2.7,1.7c-1,1.7,0.8,2.6,2.3,2.8c1.5,0.2,4.1-0.7,4.3-1.9
		C198.6,18.9,196.8,17,194.5,17.5z"/>
	<path class="st13" d="M188.5,17.4c0,0-3.1-3-6.1-0.4c-3,2.6-2.6,6,0.6,10.1c3.2,4.1,4.4,1.8,6-2.4
		C190.7,20.3,189.5,18.1,188.5,17.4z"/>
	<path class="st14" d="M184.6,17.1c0,0-1.6,0.1-2.6,2.1c-1,2,0.8,3.1,2.3,3.3c1.5,0.3,4.1-0.9,4.3-2.4
		C188.8,18.6,186.8,16.3,184.6,17.1z"/>
	<path class="st13" d="M362.5,52.1c0,0-4.3-1.4-6.1,2.5c-1.9,3.9,1.4,6.8,3,7.9c1.6,1.1,5.3-3.2,5.8-5
		C365.5,55.8,365.5,52.2,362.5,52.1z"/>
	<path class="st14" d="M361.9,53.3c0,0-3-0.8-4,1.4c-1,2.2,1.5,3.6,2.5,3.7c1,0.1,3.6-0.8,3.7-2.1C364.3,55.1,363.4,53.5,361.9,53.3
		z"/>
	<g>
		<path class="st12" d="M140.3,31.9c0,0-0.1,0-0.2,0c-0.2,0-0.4,0-0.7,0c-0.6,0-1.5-0.1-2.7-0.1c-1.2,0-2.6-0.1-4.2-0.1
			c-1.6-0.1-3.5-0.2-5.6-0.3c-2.1-0.1-4.3-0.2-6.7-0.4c-2.4-0.2-5-0.3-7.7-0.5c-5.4-0.3-11.4-0.8-17.7-1.2
			c-12.6-0.9-23.9-1.8-32.2-2.4c-4.1-0.3-7.4-0.5-9.7-0.7c-1.2-0.1-2-0.1-2.7-0.2c-0.3,0-0.5,0-0.7,0c-0.2,0-0.2,0-0.2,0
			c0,0,0.1,0,0.2,0c0.2,0,0.4,0,0.7,0.1c0.6,0.1,1.5,0.1,2.6,0.3c2.3,0.2,5.6,0.5,9.7,0.9c8.2,0.7,19.6,1.6,32.2,2.5
			c6.3,0.5,12.3,0.9,17.7,1.2c2.7,0.2,5.3,0.3,7.7,0.5c2.4,0.1,4.7,0.2,6.7,0.3c2.1,0.1,3.9,0.2,5.6,0.2c1.6,0,3.1,0,4.2,0
			c1.2,0,2.1,0,2.7,0c0.3,0,0.5,0,0.7,0C140.2,31.9,140.3,31.9,140.3,31.9z"/>
	</g>
	<g>
		<path class="st12" d="M170.4,28.8c0,0-0.2,0-0.7,0c-0.4,0-1.1,0.1-1.9,0.1c-1.6,0.1-4,0.1-7,0.1c-5.9-0.1-14-0.4-23-0.9
			c-9-0.5-17.1-1-23-1.4c-2.9-0.2-5.3-0.3-7-0.4c-0.8,0-1.5-0.1-1.9-0.1c-0.4,0-0.7,0-0.7,0c0,0,0.2,0.1,0.7,0.1
			c0.4,0,1.1,0.1,1.9,0.2c1.6,0.2,4,0.4,7,0.6c5.9,0.5,14,1.1,23,1.5c9,0.5,17.2,0.7,23.1,0.7c3,0,5.3-0.1,7-0.2
			c0.8-0.1,1.5-0.2,1.9-0.2C170.2,28.8,170.4,28.8,170.4,28.8z"/>
	</g>
	<g>
		<path class="st12" d="M201.7,36.5c0,0-0.5-0.1-1.4-0.1c-0.9,0-2.2-0.1-3.8-0.1c-3.2-0.1-7.7-0.2-12.7-0.2
			c-4.9-0.1-9.4-0.1-12.7-0.1c-1.6,0-2.9,0-3.8,0c-0.9,0-1.4,0-1.4,0.1c0,0,0.5,0.1,1.4,0.1c0.9,0,2.2,0.1,3.8,0.1
			c3.2,0.1,7.7,0.2,12.7,0.2s9.4,0.1,12.7,0.1c1.6,0,2.9,0,3.8,0C201.2,36.5,201.7,36.5,201.7,36.5z"/>
	</g>
	<g>
		<path class="st12" d="M322.6,49c0,0-0.2-0.1-0.5-0.2c-0.3-0.1-0.8-0.3-1.4-0.5c-1.2-0.4-3-1.1-5.1-1.8c-4.3-1.5-10.3-3.6-16.9-5.9
			c-6.6-2.3-12.6-4.3-17-5.7c-2.2-0.7-3.9-1.3-5.2-1.7c-0.6-0.2-1.1-0.3-1.4-0.4c-0.3-0.1-0.5-0.1-0.5-0.1c0,0,0.2,0.1,0.5,0.2
			c0.3,0.1,0.8,0.3,1.4,0.5c1.2,0.4,3,1.1,5.1,1.8c4.3,1.5,10.3,3.6,16.9,5.9c6.6,2.3,12.6,4.3,17,5.7c2.2,0.7,3.9,1.3,5.2,1.7
			c0.6,0.2,1.1,0.3,1.4,0.4C322.5,49,322.6,49,322.6,49z"/>
	</g>
	<g>
		<path class="st12" d="M355.2,64.7c0,0-0.1-0.1-0.4-0.2c-0.3-0.1-0.7-0.2-1.3-0.4c-0.6-0.2-1.2-0.4-2-0.7c-0.8-0.3-1.7-0.6-2.7-1
			c-2-0.7-4.4-1.5-7-2.5c-2.6-1-5.5-2-8.5-3.2c-6-2.3-11.5-4.3-15.5-5.8c-2-0.7-3.6-1.3-4.7-1.7c-0.6-0.2-1-0.3-1.3-0.5
			c-0.3-0.1-0.5-0.1-0.5-0.1c0,0,0.1,0.1,0.4,0.2c0.3,0.1,0.7,0.3,1.3,0.5c1.1,0.4,2.7,1.1,4.6,1.9c3.9,1.6,9.4,3.7,15.4,5.9
			c3,1.1,5.9,2.2,8.5,3.1c2.6,1,5,1.8,7,2.4c1,0.3,1.9,0.6,2.7,0.9c0.8,0.2,1.5,0.4,2.1,0.6c0.6,0.2,1,0.3,1.3,0.3
			C355.1,64.7,355.2,64.7,355.2,64.7z"/>
	</g>
	<g>
		<path class="st12" d="M488,112.4c0,0-0.2-0.1-0.7-0.2c-0.5-0.1-1.1-0.3-2-0.6c-1.7-0.5-4.2-1.3-7.2-2.3c-6.1-2-14.4-5-23.5-8.6
			c-9.1-3.5-17.3-6.9-23.2-9.5c-2.9-1.3-5.3-2.4-6.9-3.1c-0.8-0.4-1.4-0.7-1.8-1c-0.4-0.2-0.6-0.4-0.6-0.4c0,0,0.1,0.2,0.5,0.5
			c0.4,0.3,1,0.6,1.8,1.1c1.6,0.8,3.9,2,6.8,3.3c5.8,2.6,14,6.1,23.1,9.6c9.1,3.5,17.5,6.5,23.6,8.4c3.1,1,5.5,1.7,7.3,2.2
			c0.9,0.2,1.5,0.4,2,0.5C487.8,112.4,488,112.4,488,112.4z"/>
	</g>
	<g>
		<path class="st12" d="M511.4,114c0,0-0.3-0.1-0.7-0.1c-0.5,0-1.2-0.1-2.1-0.2c-0.5,0-1-0.1-1.5-0.1c-0.6-0.1-1.2-0.2-1.8-0.3
			c-0.7-0.1-1.3-0.2-2.1-0.3c-0.7-0.1-1.5-0.2-2.3-0.4c-6.5-1.3-15.3-3.9-24.8-7.3c-9.5-3.4-18-7-24.1-9.6c-3-1.3-5.5-2.5-7.2-3.2
			c-0.8-0.4-1.5-0.7-1.9-0.9c-0.4-0.2-0.7-0.4-0.7-0.4c0,0,0.2,0.2,0.6,0.4c0.4,0.2,1.1,0.6,1.9,1c1.7,0.8,4.1,2,7.1,3.4
			c6,2.7,14.5,6.4,24,9.8c9.5,3.4,18.4,5.9,24.9,7.2c0.8,0.2,1.6,0.3,2.3,0.4c0.7,0.1,1.4,0.2,2.1,0.3c0.7,0.1,1.3,0.2,1.8,0.2
			c0.6,0,1.1,0.1,1.5,0.1c0.9,0,1.6,0.1,2.1,0.1C511.1,114,511.4,114,511.4,114z"/>
	</g>
	<g>
		<path class="st12" d="M476.7,102.5c0,0-0.2-0.1-0.6-0.3c-0.4-0.1-1-0.4-1.7-0.6c-1.5-0.6-3.6-1.4-6.3-2.4c-2.6-1-5.7-2.4-9.1-4
			c-3.4-1.7-7-3.6-10.9-5.5c-7.8-3.9-14.8-7.4-19.9-9.8c-2.6-1.2-4.7-2.2-6.1-2.9c-0.7-0.3-1.3-0.6-1.7-0.8
			c-0.4-0.2-0.6-0.2-0.6-0.2c0,0,0.2,0.1,0.6,0.3c0.4,0.2,0.9,0.5,1.6,0.8c1.4,0.7,3.5,1.7,6,3c5.1,2.5,12.1,6,19.8,9.9
			c3.9,1.9,7.6,3.8,10.9,5.5c3.4,1.6,6.5,2.9,9.2,3.9c2.7,1,4.8,1.8,6.3,2.3c0.8,0.2,1.3,0.4,1.7,0.6
			C476.5,102.5,476.7,102.5,476.7,102.5z"/>
	</g>
</g>
</svg>
