<!-- Generator: Adobe Illustrator 19.2.1, SVG Export Plug-In  -->
<svg version="1.1"
	 xmlns="http://www.w3.org/2000/svg" xmlns:xlink="http://www.w3.org/1999/xlink" xmlns:a="http://ns.adobe.com/AdobeSVGViewerExtensions/3.0/"
	 x="0px" y="0px" width="744px" height="320.3px" viewBox="0 0 744 320.3" style="enable-background:new 0 0 744 320.3;"
	 xml:space="preserve">
<style type="text/css">
	.st0{fill:#231F20;}
	.st1{fill:#6E6F72;}
	.st2{fill:#786550;}
	.st3{fill:#A08665;}
	.st4{fill:#C1A280;}
	.st5{fill:#D2C99F;}
	.st6{fill:#F6EFCC;}
	.st7{fill:#4D4B42;}
	.st8{fill:#504E50;}
	.st9{fill:#8E8A77;}
	.st10{fill:#010101;}
	.st11{fill:#676767;}
	.st12{fill:#FFFFFF;}
</style>
<defs>
</defs>
<g>
	<path class="st0" d="M23.7,180.5c0,0-11.5,2.2-18.2-5.7c-6.7-7.8-2.8-7.2,2.5-4.5c5.3,2.7,14,1.1,17.1,0.8
		C28.1,170.8,33.9,178.4,23.7,180.5z"/>
	<path class="st1" d="M5.9,172c0,0,3.7,3.3,6.9,3.8c3.2,0.5,4,0.1,4-0.8c0-0.9-0.3-2-2.4-2C12.3,173.1,2.9,169.8,5.9,172z"/>
	<path class="st0" d="M22.8,184.4c0,0-11.4,3-18.6-4.4c-7.2-7.3-3.3-7,2.1-4.6c5.4,2.3,14.1,0.1,17.1-0.4
		C26.5,174.4,32.8,181.6,22.8,184.4z"/>
	<path class="st1" d="M4.4,177.2c0,0,3.9,3,7.2,3.3c3.2,0.3,4-0.2,3.9-1.1c-0.1-0.9-0.4-2-2.5-1.8C10.9,177.8,1.3,175.2,4.4,177.2z"
		/>
	<path class="st0" d="M23.1,189.1c0,0-11.2,3.6-18.8-3.3c-7.7-6.9-3.7-6.8,1.9-4.8c5.6,2,14.1-0.7,17.1-1.4
		C26.2,178.9,33,185.7,23.1,189.1z"/>
	<path class="st1" d="M4.4,183c0,0,4.1,2.8,7.3,2.9c3.3,0.1,4-0.4,3.8-1.3c-0.1-0.9-0.5-2-2.6-1.6C10.8,183.2,1.1,181.2,4.4,183z"/>
	<path class="st2" d="M183.4,179.4c-1.6,32.6-35.8,31.9-77.4,32c-37.5,0.1-87.9-11.4-88.4-29.1c13.8,11.5,50.9,11.9,62.8,11.9
		c14.1,0,49.6-4.3,46.9-22.3c-2.7-18.1,2.2-68.7,2.2-68.7s6.8-2.3,11.9-19.7c0.2-0.8,0.4-1.5,0.5-2.1
		C171.2,67.8,184.7,150.4,183.4,179.4z"/>
	<path class="st0" d="M100.5,215.2c0,0-10.8,1.7-16.9-5.8c-6-7.5-2.4-6.8,2.4-4.1c4.8,2.7,13.1,1.5,16,1.2
		C104.9,206.2,110.1,213.5,100.5,215.2z"/>
	<path class="st1" d="M84.2,206.8c0,0,3.4,3.2,6.3,3.7c3,0.5,3.7,0.2,3.7-0.6c0-0.8-0.2-1.9-2.2-1.9
		C90.1,207.9,81.4,204.6,84.2,206.8z"/>
	<path class="st0" d="M716.2,190.1c0,0,14.1,0,17.6,5.9c3.5,5.9,3.2,8,0.8,5.9c-2.4-2.1-11.6-3.9-15.2-4.6
		C715.7,196.8,705.9,191.8,716.2,190.1z"/>
	<path class="st1" d="M722.4,191.9c0,0,0.7,2.3,2.3,2.8c1.6,0.5,6.3,1.3,7.3,2.2c0.9,0.9,1.9,0.7-0.3-2
		C730.6,193.5,722,191,722.4,191.9z"/>
	<path class="st0" d="M719.7,193.8c0,0,15.5,0,19.3,6.5c3.8,6.5,3.5,8.8,0.9,6.5c-2.7-2.3-12.7-4.3-16.8-5
		C719.1,201.1,708.4,195.6,719.7,193.8z"/>
	<path class="st1" d="M726.5,195.7c0,0,0.8,2.6,2.5,3.1c1.7,0.5,7,1.5,8,2.5c1,1,2.1,0.7-0.3-2.2
		C735.5,197.5,726.1,194.7,726.5,195.7z"/>
	<path class="st0" d="M723.8,198.5c0,0,15.4,2.4,18.3,10c2.9,7.6,2.3,10,0,7.1c-2.3-2.9-12-6.6-15.9-8
		C722.2,206.3,712.3,198.7,723.8,198.5z"/>
	<path class="st0" d="M591.2,265.1c0,0,20.3-10.5,37.2-6.3c16.9,4.2,5.9,2.5-6.7,9.4c-12.6,6.9-24.5,14.6-27.8,10.8
		C590.5,275.1,573.9,274.8,591.2,265.1"/>
	<path class="st1" d="M597.6,264.1c0,0-0.4,3.7,4.9,3.1c5.2-0.6,10.3-3.3,16.4-4.7c6.1-1.4,5.9-3.8-3-2.8
		C606.9,260.6,597.2,262.5,597.6,264.1z"/>
	<path class="st0" d="M603.3,271.2c0,0,20.7-9.7,37.4-4.8c16.7,4.9,5.8,2.7-7.1,9.1c-12.9,6.4-25.1,13.6-28.2,9.6
		C602.3,281.1,585.7,280.2,603.3,271.2"/>
	<path class="st1" d="M609.8,270.4c0,0-0.5,3.7,4.8,3.3c5.3-0.4,10.4-2.9,16.6-4.1c6.1-1.2,6.1-3.5-2.9-2.9
		C619.3,267.3,609.5,268.8,609.8,270.4z"/>
	<path class="st3" d="M730.2,210.2L730.2,210.2c-18.3,9.9-161.6,3.2-194.3-4.5c-32.7-7.7-51.4-47.6-51.4-47.6s-3.4-6.7-23.6-10
		c-2.1-0.4-3.8,0.1-5,1.4c-4.1-7.1-7.3-13.6-9.3-18.7c-9.3-23.7,23.9-57.7,49-24.5c0,0,45,61,73,63.1c28,2.2,132.1,10.3,150.8,23.4
		C727.8,198.6,730.9,204.9,730.2,210.2z"/>
	<path class="st2" d="M730.2,210.2c-0.8,6.4-7.2,11.1-16.2,11.1c-16.3,0-166.2,7.3-194.7-3.3c-22.3-8.3-48.6-42.8-63.5-68.7
		c1.2-1.2,2.9-1.7,5-1.4c20.2,3.3,23.6,10,23.6,10s18.7,39.8,51.4,47.6C568.7,213.4,711.9,220,730.2,210.2L730.2,210.2z"/>
	<path class="st4" d="M687.3,185.8c0,0-101.6-13.8-121.3-10c-19.7,3.8-6.8,15.2,16.3,18.5c23.1,3.3,104.4,9.3,120,6
		C717.9,197,706.9,192,687.3,185.8z"/>
	<path class="st0" d="M613.2,278.2c0,0,21.8-7,37.7,0c15.9,7,5.4,3.5-8.2,8.1c-13.6,4.7-26.6,10.3-29.2,5.9
		C610.9,287.9,594.5,284.8,613.2,278.2"/>
	<path class="st1" d="M619.7,278.2c0,0-1,3.6,4.3,3.8c5.3,0.3,10.7-1.5,16.9-1.9c6.2-0.4,6.5-2.7-2.5-3.3
		C629.5,276.3,619.6,276.5,619.7,278.2z"/>
	<path class="st1" d="M730.3,201.7c0,0,0.5,2.9,2.1,3.7c1.7,0.8,6.7,2.7,7.6,3.9c0.9,1.2,2,1.1,0-2.4C739,205,730,200.5,730.3,201.7
		z"/>
	<path class="st0" d="M92.3,230c0,0-11.6,1.8-18.1-6.2c-6.5-8-2.6-7.3,2.6-4.4c5.2,2.8,14,1.6,17.1,1.3
		C97.1,220.4,102.6,228.1,92.3,230z"/>
	<path class="st1" d="M74.8,220.9c0,0,3.6,3.4,6.8,4c3.2,0.6,4,0.2,4-0.7c0-0.9-0.2-2-2.3-2C81.1,222.2,71.9,218.6,74.8,220.9z"/>
	<path class="st0" d="M95.3,221.2c0,0-11.6,1.8-18.1-6.2c-6.5-8-2.6-7.3,2.6-4.4c5.2,2.8,14,1.6,17.1,1.3
		C100.1,211.6,105.6,219.4,95.3,221.2z"/>
	<path class="st1" d="M77.8,212.2c0,0,3.6,3.4,6.8,4c3.2,0.6,4,0.2,4-0.7c0-0.9-0.2-2-2.3-2S74.9,209.9,77.8,212.2z"/>
	<path class="st3" d="M127.4,171.9c2.7,18.1-32.8,22.3-46.9,22.3c-12,0-49-0.4-62.8-11.9c0-1.1,0.1-2.2,0.5-3.4
		c25.2-22.3,92.5-18.7,92.5-18.7c-4.1-4.4-8.2-6.8-11.3-8.1c0.5-0.9,16.5-25.8,29.7-43.7C128,121.8,125.2,157.3,127.4,171.9z"/>
	<path class="st4" d="M110.7,160.2c0,0-67.3-3.5-92.5,18.7c0.3-0.9,0.7-1.7,1.2-2.6c12.4-21,74.9-25.7,74.9-25.7
		S102.5,151.4,110.7,160.2z"/>
	<path class="st4" d="M142,81.3c-0.1,0.6-0.2,1.4-0.5,2.1c-5.1,17.5-11.9,19.7-11.9,19.7s-0.2,1.9-0.5,5.2v0
		c-13.2,17.9-29.2,42.8-29.7,43.7h0c-3.1-1.3-5.2-1.5-5.2-1.5c5.7-16.4,36.2-59.4,36.2-59.4C134.5,86.2,138.4,83,142,81.3z"/>
	<path class="st5" d="M562.7,148.8c-15.5,19.7-48.5,40.7-101.2,41.3c-85.6,1,23.3-143.8,81.3-116.4c0,0,3,2.3,7.1,6.7
		c1.7,8.3,2.9,17.9,2.9,17.9l-6.4-11c-4.9,12.4-40.1,40.4-40.1,40.4l-1.3-4.2c-3.2,8.8-26.9,36.3-26.9,36.3l-3.4-2.8l1,18.1
		c0,0,59.1-10.1,73.3-19.4c2.5-1.6,4.5-3.5,6.2-5.4h0C557.5,150.1,560,149.6,562.7,148.8z"/>
	<path class="st6" d="M563.7,129.4c0,0.2,0.1,0.5,0.1,0.7c0,0-0.3,8.3-5.7,16.5c-5.7,0.6-13.5,0.7-17.3-2c-6.4-4.6-5.2,0-2.8,1.8
		c2,1.5,7.1,5.1,17.2,3.9c-1.7,1.9-3.8,3.7-6.2,5.4c-14.2,9.3-73.3,19.4-73.3,19.4l-1-18.1l3.4,2.8c0,0,23.7-27.4,26.9-36.3l1.3,4.2
		c0,0,35.2-28,40.1-40.4l6.4,11c0,0-1.2-9.6-2.9-17.9c6.2,6.7,14.8,18.1,19.2,33.5C569,113.9,563,121.4,563.7,129.4z"/>
	<path class="st7" d="M474.6,139.2c0,0,34.8-3.9,49.8-8.2c26.2-7.5,24.7-23.4,18.2-28.8c-6.4-5.4-12.7,8.5-26.1,12
		c-13.4,3.5-40.8,10.5-42.9,10.5C471.6,124.8,462.6,140.8,474.6,139.2z"/>
	<path class="st3" d="M553.9,97.5L553.9,97.5c-0.3,0.7-0.7,1.5-1.1,2.2c0,0,0-10.8-7.5-18.2c0,0-22.8,26-37.2,33.3v-12.4
		c0,0-19.1,42.5-32.4,50.8l-4.7-14.5c0,0-2.3,7.6-4.3,17.1c-1.2,0.6-61,29.1-79.2-5.1c-18.4-34.5-57.4-1.2-69.7,8.4
		c-12.3,9.5-44.1,22.4-67.9,2.2c-23.8-20.2-49.2-60.1-65.8-54.9c-15.1,4.7-47.3,25-45.2,46.5c-2.6-6.3-4.6-12.8-6.1-19.4
		c2.5-84.4,46.2-94.4,93.8-106.3c47.7-11.9,145.1,28,190.2,35.8c45.1,7.8,104.7-4.7,121,3.6C554.2,74.6,553.9,97.5,553.9,97.5z"/>
	<path class="st8" d="M571.6,133.1c-4,0.5-7.7-0.1-8-3.7c-0.7-8.1,5.4-15.5,5.4-15.5c1.1,1.6,2,3.1,2.9,4.7
		C573.8,122,573.7,127.1,571.6,133.1z"/>
	<path class="st9" d="M565,145.6c-0.7,1-1.5,2.1-2.3,3.1c-15.1,4.4-22.2-0.6-24.7-2.4c-2.4-1.8-3.6-6.4,2.8-1.8
		C547.2,149.2,565,145.6,565,145.6C565,145.6,565,145.6,565,145.6z"/>
	<circle class="st10" cx="537.4" cy="111" r="9.2"/>
	<path class="st4" d="M553.9,97.5c0,0,0.3-22.9-16.1-31.2c-16.3-8.3-75.9,4.1-121-3.6C371.7,54.9,274.3,15,226.6,26.9
		c-47.7,11.9-91.3,21.9-93.8,106.3c-10.5-46.1,4.9-98.2,47.7-119c51-24.9,84.3-13.8,156.9,8.1C396.3,40,446.5,51.5,493.3,50
		c46.8-1.6,59.5,7,59.5,7l-4.2,4.7C548.6,61.6,562.4,78.9,553.9,97.5z"/>
	<path class="st2" d="M465.4,186.6c4.7,14.1-72.8,30.7-110.6,30.7c-37.8,0-179.6,11.4-213.1-58.6c-1-2-1.9-4-2.7-6.1
		c-2.1-21.4,30.1-41.7,45.2-46.5c16.6-5.2,42,34.7,65.8,54.9c23.8,20.2,55.5,7.3,67.9-2.2c12.3-9.5,51.3-42.9,69.7-8.4
		c18.2,34.2,78,5.6,79.2,5.1C464.6,166.2,462.9,179.2,465.4,186.6z"/>
	<path class="st11" d="M568.9,115c0,0-4,7-2.3,8.4c1.7,1.3,5.4,1.3,5-1.8C571.2,118.4,571.2,117,568.9,115z"/>
	<path class="st5" d="M571.6,133.1c-1.3,3.9-3.5,8.2-6.6,12.5c0,0,0,0,0,0s-3,0.6-6.9,1c5.4-8.2,5.7-16.5,5.7-16.5
		C564.5,133.1,567.9,133.5,571.6,133.1z"/>
	<circle class="st12" cx="540.9" cy="106.7" r="2.3"/>
	<path class="st3" d="M619.7,283.8c-1.3,15.4-48.4,23.5-107.5,25.6c-59.1,2.1-138.4-23.3-178.8-38.9c-30.8-11.9-37.3-27.6-38.6-34.5
		c0.4-4.1,0.9-8.7,1.2-14.1c1-21.2,10.4-90.1,45.6-104.9c35.2-14.7,51.1-3.3,49.7,6.5c0,0-8.3,60.6-11.4,80.3
		c-4.8,30.1,97.4,57,137.8,63.2c40.4,6.2,50.7-4.5,67.2-1.8C601.3,268.1,613.6,275.6,619.7,283.8z"/>
	<path class="st3" d="M204.1,247.9c-20.2,0-100.1-0.8-116.5-29.9c0.7-3,2.3-5.8,4.8-8.3c36.7-15.1,85.6,0,85.6,0
		c-7.3-4.8-19.2-16.9-19.2-16.9s0,0-0.1-0.1c-0.4-0.5-1.8-2.1-3.7-4.6c0,0,0-0.1-0.1-0.1c-10-13-34.7-50.4-17.9-83.6
		c16.3-32.1,53.4-22.6,72.2-3.5c0,0,0,0,0,0c0.4,1.4,12,48,16.6,85.5C230.5,224.6,224.3,247.9,204.1,247.9z"/>
	<path class="st4" d="M370.4,119.4c0,0-31.9-2.9-42,23.2c-10.1,26.1-9.1,51,14.9,47.5c24-3.5,34.1-21.9,36.4-43.4
		C382.1,125.1,381.9,118.8,370.4,119.4z"/>
	<path class="st2" d="M612.1,307.5c-24.9,7.2-66.3,17.6-132.7,10.4c-66.3-7.2-150.7-34.9-170.4-50.4c-14.7-11.6-15.3-19.4-14.3-31.4
		c1.3,6.8,7.8,22.6,38.6,34.5c40.4,15.5,119.7,40.9,178.8,38.9c59.1-2.1,106.2-10.2,107.5-25.6C626.9,293.3,625.5,303.6,612.1,307.5
		z"/>
	<path class="st4" d="M391.4,236c0,0-13.5-6.5-23.3-3.9c-9.8,2.6-20.2,5.2-7.8,19.2c12.4,14,42.5,27.5,96.9,36.3s103.1,3.6,122.3,0
		c19.2-3.6,14.8-14.4,0-17.6c-14.8-3.2-35.2,12.1-87.1-2.5C440.7,252.9,399.1,238.9,391.4,236z"/>
	<path class="st2" d="M240.7,223.1c-4.1,18.7-15.5,49.7-65.3,43.5c-49.7-6.2-86-23.8-88.1-43.5c-0.2-1.8-0.1-3.5,0.3-5.1
		c16.4,29.1,96.3,29.9,116.5,29.9c20.2,0,26.4-23.3,21.8-61.4c-4.6-37.5-16.2-84.1-16.6-85.5c5.2,5.3,9,11.2,10.6,17.3
		C219.9,118.3,244.8,204.4,240.7,223.1z"/>
	<path class="st4" d="M177.9,209.7c0,0-48.9-15.1-85.6,0c10.9-11.5,37.8-17.8,66.4-16.9C158.8,192.9,170.7,205,177.9,209.7z"/>
	<path class="st4" d="M175.3,91.2c0,0-36.2,5.1-36.5,25.9c-0.3,20.8,9,51.4,36.5,58.1c27.5,6.7,35.8-18.1,34.7-37.3
		C209,118.7,194,89.6,175.3,91.2z"/>
</g>
</svg>
